<svg width="48" height="48" viewBox="0 0 48 48" fill="none" xmlns="http://www.w3.org/2000/svg">
  <rect width="48" height="48" rx="12" fill="#002B2B"/>
  <g transform="translate(7 5) scale(1.58)" fill="#8DF0BF">
    <path d="M20.5007 9.33541C20.2364 8.58541 19.8864 7.87826 19.4507 7.22826C18.2792 5.44255 15.9435 3.00684 11.6364 3.00684H8.45067L7.61496 7.23541H2.9221L0.0078125 22.0068H11.6507C15.9435 22.0068 19.3364 19.3211 20.515 15.6854C21.2507 13.6283 21.2507 11.414 20.5007 9.33541ZM8.56495 14.3283L9.55067 9.32826H11.115C12.8435 9.32826 14.2435 10.7426 14.2435 12.4925C14.2435 14.2425 12.8435 15.6568 11.115 15.6568H8.29353L8.56495 14.3283ZM17.9864 15.664C16.8007 18.1711 14.3078 19.8783 11.3792 19.8783H2.76496L4.85067 9.32826H7.20067L5.5221 17.7711H11.365C14.2792 17.7711 16.5864 15.3997 16.5864 12.4997C16.5864 9.59969 14.2792 7.22826 11.365 7.22826H9.95781L10.3792 5.11398H11.3721C15.4078 5.11398 18.6864 8.42112 18.6864 12.4925C18.6864 13.6211 18.4364 14.6997 17.9864 15.664Z"/>
    <path d="M6.44961 3L5.98532 5.37143H3.34961L3.8139 3H6.44961Z"/>
  </g>
</svg>
